EMG
version=1
nRows=31
nColumns=17
inDegrees=no
endheader
time	_right_gast_med	_right_glut_max	_left_gast_med	_left_glut_max	_right_glut_med	_right_bic_fem	_right_rect_fem	_right_vast_lat	_right_vast_med	_right_tens_fasc_lat	_left_glut_med	_left_bic_fem	_left_rect_fem	_left_vast_lat	_left_vast_med	_left_tens_fasc_lat
      0.61000000	     -0.01666064	      0.01035674	      0.00823208	     -0.02615119	     -0.00570159	      0.02880242	      0.01973584	      0.00400413	     -0.06175019	      0.00400699	      0.00252041	      0.01173324	      0.03395299	     -0.05465963	     -0.27826253	      0.00929768
      0.62000000	     -0.01731941	      0.00115403	      0.01497204	     -0.01652478	      0.00512780	      0.01523121	      0.01521157	     -0.02359896	     -0.04598478	      0.00972205	      0.00154724	      0.02036181	      0.01653258	     -0.06386378	     -0.31188071	      0.00748166
      0.63000000	      0.15758628	     -0.01103704	      0.01756733	     -0.00054862	      0.02663751	      0.01054154	      0.00448786	     -0.02199177	     -0.01301992	      0.00914472	      0.00475562	      0.03233614	     -0.01600598	      0.00828912	     -0.11841188	     -0.00397708
      0.64000000	      0.67817175	     -0.01501896	      0.01464796	      0.02379279	      0.03848286	      0.00409350	      0.00362708	     -0.00450288	      0.03259747	      0.00915173	      0.00854173	      0.02753881	     -0.02048618	      0.07918680	      0.16872261	     -0.01357334
      0.65000000	      0.50417906	     -0.00840923	      0.00893294	      0.03536001	      0.03443004	     -0.01222784	      0.00621122	      0.00143103	      0.07375757	      0.01796549	      0.00957902	      0.00874550	     -0.00334256	      0.07926595	      0.27829304	     -0.01964843
      0.66000000	     -0.20703053	     -0.00288835	      0.00955325	      0.03654382	      0.03002264	     -0.01750982	     -0.00083894	     -0.00079515	      0.07063708	      0.02019941	      0.01334739	     -0.00471606	      0.00788434	      0.04855043	      0.26729426	     -0.01565417
      0.67000000	     -0.61994320	     -0.00161855	      0.01576428	      0.01869339	      0.02627866	     -0.00528326	     -0.00771678	     -0.00032319	      0.04814334	      0.01601191	      0.01444287	     -0.00702254	      0.00436640	      0.03841491	      0.22076544	     -0.01826526
      0.68000000	     -0.56701249	     -0.00775610	      0.02357646	      0.00007076	      0.01920302	      0.00507535	     -0.00758536	      0.00429827	      0.04027101	      0.01230586	      0.00932005	      0.02281769	      0.00178461	      0.05137608	      0.15844464	     -0.02302852
      0.69000000	     -0.40917179	     -0.02537975	      0.01855797	      0.01076135	      0.01115643	      0.00430278	     -0.00514952	      0.00523889	      0.04943457	      0.00841783	     -0.00730977	      0.03489480	      0.02028818	      0.04463217	      0.09475452	     -0.00407078
      0.70000000	     -0.18795469	     -0.03534724	     -0.01777382	      0.02051331	      0.00494055	      0.00353057	     -0.00216427	      0.00310856	      0.05293928	      0.01243454	     -0.00133653	     -0.00681680	      0.02911096	      0.03684751	      0.07633519	      0.02388395
      0.71000000	     -0.33125195	     -0.03351560	     -0.04412330	      0.01175822	      0.00692122	      0.00075009	      0.01021139	     -0.00731201	      0.03225419	      0.01143280	      0.01684692	     -0.05686597	     -0.00822968	      0.00543311	      0.03360727	      0.02471576
      0.72000000	     -0.02836698	     -0.01899886	     -0.01210409	      0.01689376	      0.01332045	     -0.00062031	      0.02343884	     -0.02376455	      0.02077576	      0.01037851	      0.01605133	     -0.04396138	      0.00436446	     -0.05068590	     -0.01325263	      0.01382251
      0.73000000	      0.08988577	      0.00557745	      0.03134842	      0.02265342	      0.01707042	      0.00554532	      0.02529894	     -0.01975227	      0.04553445	      0.00537249	      0.03395490	      0.00535021	      0.04013383	     -0.06465092	      0.02306012	      0.01314090
      0.74000000	      0.97012591	      0.02016929	      0.04308543	      0.00754918	      0.02013523	      0.00734761	      0.02432823	      0.00201447	      0.08865521	     -0.00809865	      0.05888683	      0.03253810	      0.02467421	     -0.02699305	      0.01487394	     -0.00375110
      0.75000000	      1.04152882	      0.03225925	      0.02449204	     -0.00611432	      0.01701362	      0.00702634	      0.01429815	      0.01806709	      0.10089997	     -0.01215983	      0.05296610	      0.01175941	      0.01317672	     -0.02946015	     -0.02430678	      0.00245143
      0.76000000	     -0.13328460	      0.05553619	      0.02427675	     -0.01035785	      0.01045004	     -0.00132637	     -0.00296482	      0.02137541	      0.08321487	     -0.00173062	      0.03099775	     -0.00364381	      0.01710387	     -0.04425901	     -0.06562348	      0.01687949
      0.77000000	     -0.46727455	      0.05993901	      0.04702494	     -0.02118802	      0.00067183	     -0.00885603	     -0.00750928	      0.01570756	      0.07404265	      0.01216559	      0.02145865	      0.00550136	      0.00697721	      0.01114565	     -0.02199515	     -0.00788625
      0.78000000	     -0.14764760	      0.00391158	      0.02026137	     -0.02650153	     -0.00887232	     -0.00700937	     -0.00933561	      0.00993059	      0.03853261	      0.01193861	      0.02151394	      0.00624823	     -0.01742601	      0.06604069	      0.03728956	     -0.02845521
      0.79000000	      0.02042111	     -0.10890011	     -0.01935793	      0.00720498	     -0.01069717	     -0.00021944	     -0.00676643	      0.03348897	     -0.10054658	      0.00739225	      0.00324174	     -0.00383514	     -0.02741244	      0.04892158	      0.00211120	     -0.02604991
      0.80000000	      0.06272972	     -0.19971454	     -0.02590266	      0.03259936	     -0.00652206	      0.01041376	      0.00532644	      0.04890584	     -0.20300378	      0.00368741	     -0.02306907	      0.01165950	     -0.00958077	      0.02695876	     -0.06200312	     -0.00447446
      0.81000000	     -0.00277508	     -0.13319333	     -0.02653085	      0.01717438	      0.01068644	      0.00757181	      0.01756544	      0.01889206	     -0.17677274	      0.00189777	     -0.03071408	      0.03415731	      0.00620299	      0.02423893	     -0.08560221	      0.02202820
      0.82000000	      0.00861061	      0.00933398	     -0.00341067	     -0.01289449	      0.03623278	     -0.00404307	      0.02352015	     -0.00916891	     -0.12892002	      0.00441625	     -0.03069951	      0.02903279	      0.02620697	      0.01537638	     -0.05023925	      0.03769849
      0.83000000	      0.99014705	      0.01057503	      0.02820573	      0.00462054	      0.03518935	     -0.00397367	      0.02629208	     -0.00275345	     -0.09657831	      0.00741008	     -0.02516335	      0.00918805	      0.04499572	      0.00796240	      0.04320646	      0.04379254
      0.84000000	      2.38119960	     -0.00405573	      0.01766568	      0.07016481	     -0.00231982	      0.00620820	      0.02781250	      0.01167386	     -0.07458340	      0.01292143	     -0.01859456	     -0.00038475	      0.04199587	      0.00730295	      0.10785080	      0.04791728
      0.85000000	      2.01017737	      0.12072410	      0.00525102	      0.10757954	     -0.02622203	      0.02259723	      0.02847761	      0.02088583	     -0.06256489	      0.02439731	     -0.01719522	      0.00489683	      0.03344565	      0.00496505	      0.03809998	      0.04989316
      0.86000000	     -0.47393799	      0.22773637	      0.03585791	      0.07861532	     -0.02206490	      0.02786023	      0.02440749	      0.02725300	     -0.04868206	      0.02577381	     -0.01647928	      0.00812949	      0.01908027	      0.00069624	     -0.08197486	      0.04891766
      0.87000000	     -2.97086549	      0.23149517	      0.03970167	     -0.06472198	     -0.01078284	      0.02784221	      0.01282613	      0.03576203	      0.01879293	      0.00852047	     -0.01127361	      0.00666125	     -0.00138591	     -0.00160362	     -0.09855486	      0.04401639
      0.88000000	     -2.92008877	      0.09773746	     -0.00439437	     -0.15404607	      0.00764905	      0.02644877	     -0.00046267	      0.03919699	      0.09833118	     -0.00583334	     -0.00136464	      0.00016288	     -0.01242756	     -0.00762594	     -0.01808701	      0.03117700
      0.89000000	     -1.31595516	      0.04603578	     -0.04023258	     -0.07017073	      0.02449318	      0.02262189	     -0.00498523	      0.02865442	      0.09806699	     -0.00336619	      0.00674958	     -0.00823218	     -0.00910609	     -0.01569382	      0.03727233	      0.00236805
      0.90000000	      0.08519992	      0.06510865	     -0.01196198	      0.00214242	      0.02464204	      0.01970133	     -0.00152540	      0.01386574	      0.06921861	      0.00351303	      0.01026572	     -0.00026822	     -0.00303454	     -0.01449266	      0.01214136	     -0.03673492
      0.91000000	      0.61978853	      0.04582903	      0.01798247	      0.00783998	      0.01991556	      0.01623364	      0.00231539	      0.00059599	      0.05072407	      0.00220805	      0.01519924	      0.01531957	      0.00349791	     -0.00287091	     -0.03824325	     -0.05569875
